<?xml version="1.0" encoding="UTF-8"?>
<svg xmlns="http://www.w3.org/2000/svg" version="1.1" viewBox="0 0 517.2 341.1">
  <defs>
    <style>
      .cls-1 {
        display: none;
        fill: none;
        stroke: #231815;
        stroke-miterlimit: 10;
        stroke-width: 1.1px;
      }

      .cls-2 {
        fill: #fff;
      }
    </style>
  </defs>
  <!-- Generator: Adobe Illustrator 28.6.0, SVG Export Plug-In . SVG Version: 1.2.0 Build 709)  -->
  <g>
    <g id="_レイヤー_1" data-name="レイヤー_1">
      <g id="a">
        <path class="cls-2" d="M473.9,119c24.5,8.7,36.8,29.1,36.8,49.4s-12.3,40.7-36.8,49.4c15.9,40.7-52.2,85-76.2,85s-47-9.2-50-15.1c0,0-6.9,12.2-40.3,34.6s-85.2,6.8-96.6,4.9c-13.7-2.2-35.4-12.8-41.7-39.5-19,13.9-54.3,17.4-54.3,17.4-46.6,5.6-87.9-46.6-72-87.3-24.5-8.7-36.8-29.1-36.8-49.4s12.3-40.7,36.8-49.4c-3.4-8.1-5-15.8-5-23,0-38.3,43.5-62.8,80.7-61.9,44.2,1.2,56.3,10.1,56.3,10.1,0,0,9.2-19.1,34.6-29.7,25.4-10.5,72.1-13.3,98,0,0,0,26.8,7.1,33.5,33.6,1.9,7.4-3-11.6,55.6-12.8,58.1-1.2,93.4,43,77.5,83.7h-.1Z"/>
        <path class="cls-1" d="M473.9,217.8c15.9,40.7-52.2,85-76.2,85s-47-9.2-50-15.1c0,0-6.9,12.2-40.3,34.6s-85.2,6.8-96.6,4.9c-13.7-2.2-35.4-12.8-41.7-39.5-19,13.9-54.3,17.4-54.3,17.4-46.6,5.6-87.9-46.6-72-87.3-24.5-8.7-36.8-29.1-36.8-49.4s12.3-40.7,36.8-49.4c-3.4-8.1-5-15.8-5-23,0-38.3,43.5-62.8,80.7-61.9,44.2,1.2,56.3,10.1,56.3,10.1,0,0,9.2-19.1,34.6-29.7,25.4-10.5,72.1-13.3,98,0,0,0,26.8,7.1,33.5,33.6,1.9,7.4-3-11.6,55.6-12.8,58.1-1.2,93.4,43,77.5,83.7,24.5,8.7,36.8,29.1,36.8,49.4s-12.3,40.7-36.8,49.4h-.1Z"/>
      </g>
    </g>
  </g>
</svg>