<?xml version="1.0" encoding="UTF-8"?><svg id="a" xmlns="http://www.w3.org/2000/svg" viewBox="0 0 505.82 329.68"><path d="M468.5,113.96c24.51,8.74,36.77,29.07,36.77,49.4s-12.26,40.65-36.77,49.39c15.9,40.72-52.24,84.95-76.24,84.95s-47.04-9.24-50.05-15.09c0,0-6.89,12.25-40.32,34.6-33.44,22.35-85.23,6.76-96.6,4.91-13.68-2.22-35.38-12.79-41.69-39.51-18.96,13.93-54.33,17.42-54.33,17.42-46.61,5.57-87.86-46.56-71.96-87.28C12.8,204.01.55,183.68.55,163.36s12.25-40.66,36.76-49.4c-3.41-8.1-4.95-15.79-4.95-22.99,0-38.29,43.48-62.85,80.7-61.87,44.22,1.16,56.28,10.07,56.28,10.07,0,0,9.22-19.15,34.59-29.67,25.36-10.52,72.1-13.27,97.96,0,0,0,26.79,7.08,33.52,33.55,1.87,7.38-2.97-11.62,55.59-12.79,58.11-1.16,93.4,42.99,77.5,83.7Z" fill="#231815"/><path d="M468.5,212.75c15.9,40.72-52.24,84.95-76.24,84.95s-47.04-9.24-50.05-15.09c0,0-6.89,12.25-40.32,34.6-33.44,22.35-85.23,6.76-96.6,4.91-13.68-2.22-35.38-12.79-41.69-39.51-18.96,13.93-54.33,17.42-54.33,17.42-46.61,5.57-87.86-46.56-71.96-87.28C12.8,204.01.55,183.68.55,163.36s12.25-40.66,36.76-49.4c-3.41-8.1-4.95-15.79-4.95-22.99,0-38.29,43.48-62.85,80.7-61.87,44.22,1.16,56.28,10.07,56.28,10.07,0,0,9.22-19.15,34.59-29.67,25.36-10.52,72.1-13.27,97.96,0,0,0,26.79,7.08,33.52,33.55,1.87,7.38-2.97-11.62,55.59-12.79,58.11-1.16,93.4,42.99,77.5,83.7,24.51,8.74,36.77,29.07,36.77,49.4s-12.26,40.65-36.77,49.39Z" fill="none" stroke="#231815" stroke-miterlimit="10" stroke-width="1.1"/></svg>